<svg width="1200" height="630" viewBox="0 0 1200 630" fill="none" xmlns="http://www.w3.org/2000/svg">
  <defs>
    <linearGradient id="bg" x1="84" y1="50" x2="1120" y2="596" gradientUnits="userSpaceOnUse">
      <stop offset="0" stop-color="#20141B"/>
      <stop offset="0.38" stop-color="#112935"/>
      <stop offset="0.7" stop-color="#103845"/>
      <stop offset="1" stop-color="#1B2F2A"/>
    </linearGradient>
    <radialGradient id="glowLeft" cx="0" cy="0" r="1" gradientUnits="userSpaceOnUse" gradientTransform="translate(180 146) rotate(32) scale(260 220)">
      <stop stop-color="#FF8B5E" stop-opacity="0.48"/>
      <stop offset="1" stop-color="#FF8B5E" stop-opacity="0"/>
    </radialGradient>
    <radialGradient id="glowCenter" cx="0" cy="0" r="1" gradientUnits="userSpaceOnUse" gradientTransform="translate(612 332) rotate(90) scale(224 326)">
      <stop stop-color="#49D9D0" stop-opacity="0.44"/>
      <stop offset="1" stop-color="#49D9D0" stop-opacity="0"/>
    </radialGradient>
    <radialGradient id="glowRight" cx="0" cy="0" r="1" gradientUnits="userSpaceOnUse" gradientTransform="translate(1014 154) rotate(120) scale(280 220)">
      <stop stop-color="#F7C160" stop-opacity="0.34"/>
      <stop offset="1" stop-color="#F7C160" stop-opacity="0"/>
    </radialGradient>
    <linearGradient id="glass" x1="126" y1="100" x2="1094" y2="558" gradientUnits="userSpaceOnUse">
      <stop stop-color="#FFFFFF" stop-opacity="0.16"/>
      <stop offset="1" stop-color="#FFFFFF" stop-opacity="0.05"/>
    </linearGradient>
    <linearGradient id="panel" x1="0" y1="0" x2="1" y2="1">
      <stop stop-color="#FFFFFF" stop-opacity="0.19"/>
      <stop offset="1" stop-color="#FFFFFF" stop-opacity="0.07"/>
    </linearGradient>
    <linearGradient id="tealLine" x1="399" y1="355" x2="882" y2="249" gradientUnits="userSpaceOnUse">
      <stop stop-color="#49D9D0" stop-opacity="0"/>
      <stop offset="0.22" stop-color="#49D9D0"/>
      <stop offset="0.68" stop-color="#79F3D9"/>
      <stop offset="1" stop-color="#F7C160" stop-opacity="0"/>
    </linearGradient>
    <linearGradient id="orangeLine" x1="410" y1="405" x2="882" y2="315" gradientUnits="userSpaceOnUse">
      <stop stop-color="#FF8B5E" stop-opacity="0"/>
      <stop offset="0.3" stop-color="#FF8B5E"/>
      <stop offset="0.72" stop-color="#F7C160"/>
      <stop offset="1" stop-color="#F7C160" stop-opacity="0"/>
    </linearGradient>
    <linearGradient id="cyanCard" x1="0" y1="0" x2="1" y2="1">
      <stop stop-color="#4ED4CB"/>
      <stop offset="1" stop-color="#257D85"/>
    </linearGradient>
    <linearGradient id="orangeCard" x1="0" y1="0" x2="1" y2="1">
      <stop stop-color="#FF9B67"/>
      <stop offset="1" stop-color="#C85E38"/>
    </linearGradient>
    <linearGradient id="goldCard" x1="0" y1="0" x2="1" y2="1">
      <stop stop-color="#F8CB6B"/>
      <stop offset="1" stop-color="#A67218"/>
    </linearGradient>
    <filter id="blur" x="-30%" y="-30%" width="160%" height="160%">
      <feGaussianBlur stdDeviation="34"/>
    </filter>
    <filter id="softShadow" x="-20%" y="-20%" width="150%" height="150%">
      <feDropShadow dx="0" dy="22" stdDeviation="28" flood-color="#06161C" flood-opacity="0.34"/>
    </filter>
    <filter id="cardShadow" x="-20%" y="-20%" width="150%" height="150%">
      <feDropShadow dx="0" dy="18" stdDeviation="22" flood-color="#081318" flood-opacity="0.26"/>
    </filter>
    <filter id="innerGlow" x="-20%" y="-20%" width="150%" height="150%">
      <feDropShadow dx="0" dy="0" stdDeviation="10" flood-color="#8FF9EF" flood-opacity="0.34"/>
    </filter>
  </defs>

  <rect width="1200" height="630" rx="28" fill="url(#bg)"/>
  <rect width="1200" height="630" rx="28" fill="url(#glowLeft)"/>
  <rect width="1200" height="630" rx="28" fill="url(#glowCenter)"/>
  <rect width="1200" height="630" rx="28" fill="url(#glowRight)"/>

  <g opacity="0.24">
    <path d="M104 108H1096" stroke="#C8FFF5" stroke-opacity="0.14"/>
    <path d="M104 183H1096" stroke="#C8FFF5" stroke-opacity="0.12"/>
    <path d="M104 258H1096" stroke="#C8FFF5" stroke-opacity="0.1"/>
    <path d="M104 333H1096" stroke="#C8FFF5" stroke-opacity="0.1"/>
    <path d="M104 408H1096" stroke="#C8FFF5" stroke-opacity="0.12"/>
    <path d="M104 483H1096" stroke="#C8FFF5" stroke-opacity="0.12"/>
    <path d="M182 76V554" stroke="#C8FFF5" stroke-opacity="0.1"/>
    <path d="M314 76V554" stroke="#C8FFF5" stroke-opacity="0.08"/>
    <path d="M446 76V554" stroke="#C8FFF5" stroke-opacity="0.08"/>
    <path d="M578 76V554" stroke="#C8FFF5" stroke-opacity="0.08"/>
    <path d="M710 76V554" stroke="#C8FFF5" stroke-opacity="0.08"/>
    <path d="M842 76V554" stroke="#C8FFF5" stroke-opacity="0.08"/>
    <path d="M974 76V554" stroke="#C8FFF5" stroke-opacity="0.1"/>
  </g>

  <g filter="url(#blur)" opacity="0.58">
    <ellipse cx="602" cy="320" rx="164" ry="92" fill="#5AF7E6"/>
    <ellipse cx="618" cy="344" rx="126" ry="58" fill="#FF9B67"/>
  </g>

  <rect x="84" y="64" width="1032" height="502" rx="36" fill="url(#glass)" stroke="#FFFFFF" stroke-opacity="0.18"/>

  <text x="122" y="124" fill="#FFF6EE" font-family="Georgia, 'Times New Roman', serif" font-size="40" font-weight="700">Turn raw links into structured knowledge</text>
  <text x="124" y="156" fill="#BEE6DF" font-family="'Trebuchet MS', Arial, sans-serif" font-size="17">Telegram intake, AI enrichment, database memory, and Notion-ready cards in one flow.</text>

  <g filter="url(#softShadow)">
    <rect x="126" y="192" width="268" height="296" rx="30" fill="url(#panel)" stroke="#FFFFFF" stroke-opacity="0.18"/>
  </g>

  <text x="154" y="236" fill="#EAF8F6" font-family="'Trebuchet MS', Arial, sans-serif" font-size="18" font-weight="700">Telegram</text>
  <text x="154" y="258" fill="#8FC7C0" font-family="'Trebuchet MS', Arial, sans-serif" font-size="13">Incoming link and user intent</text>

  <g filter="url(#cardShadow)">
    <rect x="154" y="288" width="210" height="76" rx="22" fill="#66E1D8" fill-opacity="0.18" stroke="#74FFF3" stroke-opacity="0.34"/>
  </g>
  <text x="176" y="317" fill="#DFFFFB" font-family="Consolas, Menlo, monospace" font-size="14">https://github.com/66HEX/frame</text>
  <text x="176" y="343" fill="#AEE7DF" font-family="'Trebuchet MS', Arial, sans-serif" font-size="14">"compress my videos"</text>

  <g filter="url(#cardShadow)">
    <rect x="154" y="386" width="170" height="54" rx="18" fill="#FF9966" fill-opacity="0.18" stroke="#FFAE85" stroke-opacity="0.32"/>
  </g>
  <text x="176" y="419" fill="#FFE9DE" font-family="'Trebuchet MS', Arial, sans-serif" font-size="15" font-weight="700">URL extracted</text>

  <g transform="translate(326 402)">
    <circle cx="0" cy="0" r="6" fill="#6FF3E7"/>
    <circle cx="18" cy="0" r="4" fill="#7BE7D8" fill-opacity="0.9"/>
    <circle cx="34" cy="0" r="3" fill="#F5C96D" fill-opacity="0.8"/>
  </g>

  <path d="M392 326C452 278 521 243 584 250C644 257 680 306 743 313C802 320 857 293 902 254" stroke="url(#tealLine)" stroke-width="10" stroke-linecap="round" filter="url(#innerGlow)"/>
  <path d="M402 382C464 425 520 437 579 424C649 408 701 355 759 348C818 340 860 359 900 392" stroke="url(#orangeLine)" stroke-width="8" stroke-linecap="round"/>
  <path d="M430 293C495 345 558 374 632 373C710 372 778 340 849 276" stroke="#FFFFFF" stroke-opacity="0.16" stroke-width="2" stroke-dasharray="4 10"/>

  <g>
    <circle cx="502" cy="287" r="7" fill="#68EEE1"/>
    <circle cx="560" cy="342" r="5" fill="#FFF1CF"/>
    <circle cx="632" cy="315" r="6" fill="#7DF7EA"/>
    <circle cx="704" cy="364" r="5" fill="#FFB07C"/>
    <circle cx="782" cy="318" r="7" fill="#76F2E7"/>
    <circle cx="842" cy="286" r="5" fill="#F7C160"/>
  </g>

  <g filter="url(#softShadow)">
    <rect x="820" y="178" width="246" height="128" rx="28" fill="url(#panel)" stroke="#FFFFFF" stroke-opacity="0.2"/>
  </g>
  <text x="848" y="220" fill="#F8F3EA" font-family="'Trebuchet MS', Arial, sans-serif" font-size="18" font-weight="700">Structured card</text>
  <text x="848" y="245" fill="#94C7C1" font-family="'Trebuchet MS', Arial, sans-serif" font-size="13">Metadata extracted from the page</text>
  <text x="848" y="276" fill="#E4FBF7" font-family="Consolas, Menlo, monospace" font-size="14">Title: frame</text>
  <text x="848" y="296" fill="#C5ECE5" font-family="Consolas, Menlo, monospace" font-size="13">Source: github_repo</text>

  <g filter="url(#cardShadow)">
    <rect x="820" y="332" width="118" height="54" rx="16" fill="url(#cyanCard)"/>
    <rect x="948" y="332" width="118" height="54" rx="16" fill="url(#orangeCard)"/>
  </g>
  <text x="879" y="365" text-anchor="middle" fill="#EFFFFB" font-family="'Trebuchet MS', Arial, sans-serif" font-size="14" font-weight="700">facet_topic</text>
  <text x="1007" y="365" text-anchor="middle" fill="#FFF1E7" font-family="'Trebuchet MS', Arial, sans-serif" font-size="14" font-weight="700">facet_function</text>

  <g filter="url(#softShadow)">
    <rect x="736" y="426" width="156" height="96" rx="26" fill="url(#panel)" stroke="#FFFFFF" stroke-opacity="0.18"/>
    <rect x="912" y="426" width="156" height="96" rx="26" fill="url(#panel)" stroke="#FFFFFF" stroke-opacity="0.18"/>
  </g>

  <text x="764" y="462" fill="#FFF6EE" font-family="'Trebuchet MS', Arial, sans-serif" font-size="17" font-weight="700">Postgres</text>
  <text x="764" y="486" fill="#A8D9D2" font-family="Consolas, Menlo, monospace" font-size="13">bookmarks</text>
  <text x="764" y="506" fill="#DDF8F4" font-family="Consolas, Menlo, monospace" font-size="13">facet_format[]</text>

  <text x="940" y="462" fill="#FFF6EE" font-family="'Trebuchet MS', Arial, sans-serif" font-size="17" font-weight="700">Notion</text>
  <text x="940" y="486" fill="#A8D9D2" font-family="Consolas, Menlo, monospace" font-size="13">knowledge card</text>
  <text x="940" y="506" fill="#DDF8F4" font-family="Consolas, Menlo, monospace" font-size="13">title, tags, cover</text>

  <g opacity="0.95">
    <rect x="580" y="182" width="104" height="36" rx="18" fill="url(#goldCard)"/>
    <text x="632" y="204" text-anchor="middle" fill="#4B3208" font-family="'Trebuchet MS', Arial, sans-serif" font-size="13" font-weight="700">AI enrichment</text>
  </g>

  <g opacity="0.82">
    <path d="M1010 108C1045 122 1070 149 1083 185" stroke="#FFD28C" stroke-width="2" stroke-linecap="round"/>
    <path d="M1038 100C1071 114 1097 141 1110 177" stroke="#FFD28C" stroke-opacity="0.45" stroke-width="2" stroke-linecap="round"/>
  </g>
</svg>
